<?xml version="1.0" encoding="iso-8859-1"?>
<!-- Generator: Adobe Illustrator 16.0.0, SVG Export Plug-In . SVG Version: 6.00 Build 0)  -->
<!DOCTYPE svg PUBLIC "-//W3C//DTD SVG 1.1//EN" "http://www.w3.org/Graphics/SVG/1.1/DTD/svg11.dtd">
<svg version="1.1" id="Calque_2" xmlns="http://www.w3.org/2000/svg" xmlns:xlink="http://www.w3.org/1999/xlink" x="0px" y="0px"
	 width="260px" height="260px" viewBox="0 0 260 260" style="enable-background:new 0 0 260 260;" xml:space="preserve">
<g>
	<linearGradient id="SVGID_1_" gradientUnits="userSpaceOnUse" x1="130" y1="19.3667" x2="130" y2="240.6333">
		<stop  offset="0" style="stop-color:#C3F672"/>
		<stop  offset="1" style="stop-color:#4653FF"/>
	</linearGradient>
	<path style="fill-rule:evenodd;clip-rule:evenodd;fill:url(#SVGID_1_);" d="M16.888,210.41c1.374-1.696,3.191-2.112,5.276-1.933
		c1.222,0.104,2.46,0.019,3.936,0.019c0-1.213,0-2.148,0-3.082c0-38.366-0.006-76.73,0.005-115.097
		c0.003-8.13,4.405-14.198,11.752-16.122c1.616-0.423,3.339-0.51,5.02-0.586c2.122-0.097,4.25-0.022,6.279-0.022
		c-0.27-2.394-0.855-4.639-0.703-6.833c0.353-5.092,3.082-8.752,7.589-11.133c11.705-6.183,23.397-12.388,35.094-18.585
		c9.227-4.89,18.463-9.763,27.678-14.675c7.298-3.89,14.61-4.021,21.963-0.206c2.807,1.456,5.607,2.926,8.379,4.446
		c2.087,1.146,2.718,3.008,1.722,4.771c-0.929,1.643-2.763,2.089-4.8,1.055c-2.754-1.398-5.469-2.871-8.199-4.318
		c-5.283-2.8-10.548-2.766-15.83,0.037c-20.917,11.099-41.835,22.196-62.773,33.256c-2.644,1.396-4.287,3.392-4.288,6.407
		c-0.001,3.022,1.668,5.025,4.297,6.414c21.005,11.091,41.994,22.21,62.985,33.327c4.892,2.591,9.865,2.815,14.813,0.311
		c5.369-2.718,10.654-5.598,16.172-8.51c-4.761-5.435-9.362-10.688-13.965-15.939c-3.736-4.264-7.489-8.514-11.206-12.795
		c-1.696-1.954-1.767-3.928-0.279-5.265c1.544-1.389,3.566-1.025,5.341,0.997c8.21,9.352,16.411,18.71,24.618,28.063
		c0.479,0.546,0.987,1.064,1.583,1.704c6.414-3.401,12.767-6.772,19.121-10.142c7.278-3.856,14.531-7.76,21.848-11.541
		c2.774-1.435,4.679-3.385,4.7-6.616c0.021-3.245-1.917-5.216-4.655-6.657c-13.796-7.261-27.572-14.56-41.342-21.869
		c-0.761-0.404-1.854-0.924-2.006-1.573c-0.287-1.229-0.427-2.828,0.142-3.842c0.914-1.629,2.689-1.588,4.297-0.751
		c4.305,2.242,8.597,4.511,12.885,6.783c9.357,4.959,18.702,9.941,28.065,14.888c8.302,4.386,10.592,9.472,8.155,18.791
		c2.17,0,4.259-0.005,6.347,0.001c10.415,0.031,16.99,6.565,16.993,16.952c0.011,38.292,0.004,76.584,0.004,114.875
		c0,0.935,0,1.869,0,2.821c3.205,0.844,6.817-0.973,9.213,2.175c0,3.83,0,7.659,0,11.488c-0.767,2.288-1.239,4.731-2.353,6.837
		c-4.385,8.294-11.466,11.907-20.781,11.898c-59.987-0.06-119.975-0.031-179.962-0.034c-0.956,0-1.913-0.034-2.868-0.078
		c-4.971-0.224-9.259-2.106-13.001-5.338c-4.082-3.525-6.138-8.147-7.26-13.285C16.888,218.069,16.888,214.24,16.888,210.41z
		 M155.669,140.214c-0.243-0.137-0.485-0.273-0.728-0.411c-0.568,0.131-1.143,0.241-1.704,0.395
		c-17.558,4.774-34.903,4.072-52.131-1.746c-9.88-3.336-17.29-9.212-21.208-19.102c-2.061-5.201-2.146-10.623-2.055-16.086
		c0.041-2.469,0.007-4.938,0.007-7.467c-10.014,0-19.703,0-29.525,0c0,32.403,0,64.687,0,97.233c0.955,0,1.82-0.002,2.686,0.001
		c3.828,0.013,7.659-0.033,11.485,0.067c1.887,0.049,2.986,1.195,3.063,3.1c0.076,1.913-0.98,3.017-2.816,3.366
		c-0.572,0.109-1.173,0.089-1.761,0.09c-4.934,0.007-9.867,0.015-14.801,0.001c-3.636-0.011-4.614-0.977-4.614-4.567
		c-0.004-33.799-0.004-67.598,0-101.397c0-3.707,0.954-4.635,4.758-4.639c7.879-0.008,15.759,0.001,23.638-0.007
		c0.727-0.001,1.453-0.071,2.179-0.109c-1.371-1.146-2.814-1.754-4.069-2.63c-7.562-5.279-15.9-6.889-25.027-6.188
		c-6.693,0.515-10.313,3.726-10.314,10.497c-0.005,38.438-0.002,76.877-0.002,115.315c0,0.781,0,1.563,0,2.421
		c64.977,0,129.665,0,194.417,0c0.049-0.645,0.121-1.15,0.121-1.656c0.005-38.953,0.015-77.907-0.007-116.861
		c-0.003-5.749-3.773-9.511-9.551-9.605c-3.975-0.066-7.955-0.102-11.927,0.032c-1.405,0.048-2.909,0.401-4.168,1.021
		c-4.087,2.016-8.083,4.217-12.111,6.354c-0.582,0.309-1.143,0.659-1.713,0.99c8.8,0.425,17.407,0.417,26.016,0.428
		c3.638,0.005,4.626,0.978,4.627,4.552c0.005,33.799,0.004,67.598,0.001,101.397c-0.001,3.7-0.973,4.653-4.754,4.653
		c-45.508,0.004-91.015,0.003-136.522-0.002c-0.733,0-1.485,0.01-2.195-0.141c-1.754-0.374-2.703-1.576-2.632-3.313
		c0.07-1.726,1.058-2.887,2.87-3.091c0.874-0.1,1.764-0.075,2.646-0.076c43.667-0.002,87.334-0.002,131-0.002
		c0.933,0,1.863,0,2.795,0c0-32.594,0-64.876,0-97.159c-9.904,0-19.642,0-29.492,0c0,1.221,0.032,2.248-0.006,3.273
		c-0.187,5.068,0.2,10.245-0.714,15.18c-1.94,10.464-8.169,17.899-17.908,22.273c-1.231,0.553-1.691,1.158-1.769,2.563
		c-0.161,2.908,0.467,5.44,2.09,7.887c1.745,2.63,3.217,5.445,4.75,8.211c1.6,2.883,1.794,5.91,0.44,8.914
		c-2.226,4.939-6.376,6.217-11.435,6.08c-8.387-0.227-13.034-8.083-8.959-15.425c1.678-3.022,3.574-5.93,5.133-9.01
		C154.654,144.078,155.053,142.09,155.669,140.214z M23.733,215.123c-0.974,8.01,1.752,13.9,7.713,17.142
		c2.824,1.536,5.87,1.722,8.99,1.721c59.703-0.013,119.406-0.01,179.108-0.012c0.883,0,1.768-0.003,2.649-0.048
		c9.536-0.481,16.168-9.337,13.98-18.681c-0.209-0.034-0.425-0.099-0.641-0.099c-25.545-0.011-51.09-0.006-76.634-0.049
		c-1.337-0.002-1.68,0.605-2.043,1.728c-2.058,6.343-7.327,10.71-13.821,10.889c-8.679,0.238-17.379,0.314-26.052-0.022
		c-6.756-0.262-11.367-4.117-13.649-10.447c-0.623-1.727-1.374-2.162-3.1-2.158c-24.735,0.056-49.47,0.037-74.205,0.037
		C25.297,215.123,24.565,215.123,23.733,215.123z M84.488,95.083c0,4.725-0.145,9.124,0.029,13.511
		c0.402,10.196,5.135,17.847,14.538,21.848c17.72,7.541,35.931,8.248,54.4,2.808c1.25-0.368,1.781-0.822,1.767-2.23
		c-0.076-7.878-0.035-15.757-0.042-23.635c0-0.398-0.072-0.795-0.14-1.477c-4.73,2.503-9.219,4.83-13.662,7.237
		c-7.596,4.114-15.141,4.094-22.75,0.007c-9.199-4.94-18.443-9.799-27.67-14.688C88.902,97.375,86.833,96.308,84.488,95.083z
		 M175.928,95.498c-0.271-0.077-0.541-0.153-0.812-0.229c-3.949,2.096-7.868,4.25-11.863,6.255
		c-1.191,0.598-1.471,1.342-1.462,2.567c0.048,7.21,0.023,14.421,0.023,21.632c0,1.361,0,2.722,0,4.416
		c6.685-3.473,11.342-8.428,12.654-15.386C175.653,108.465,175.493,101.925,175.928,95.498z M150.407,215.28
		c-13.743,0-27.15,0-40.805,0c1.52,3.432,3.865,5.676,7.372,5.756c8.671,0.198,17.351,0.192,26.022,0.007
		C146.52,220.966,148.851,218.714,150.407,215.28z M158.516,150.986c-1.535,2.652-2.915,4.905-4.165,7.229
		c-1.477,2.742,0.005,5.256,3.095,5.369c0.808,0.03,1.62,0.045,2.425-0.01c2.714-0.186,4.177-2.588,2.931-5.037
		C161.54,156.059,160.063,153.691,158.516,150.986z"/>
	<linearGradient id="SVGID_2_" gradientUnits="userSpaceOnUse" x1="94.5449" y1="177.5059" x2="94.5449" y2="184.2051">
		<stop  offset="0" style="stop-color:#C3F672"/>
		<stop  offset="1" style="stop-color:#4653FF"/>
	</linearGradient>
	<path style="fill-rule:evenodd;clip-rule:evenodd;fill:url(#SVGID_2_);" d="M94.652,177.567c10.457,0,20.914-0.003,31.371,0.005
		c0.808,0.001,1.64-0.034,2.419,0.138c1.538,0.339,2.677,1.433,2.396,2.941c-0.221,1.178-1.162,2.37-2.095,3.208
		c-0.527,0.474-1.686,0.323-2.56,0.324c-21.135,0.014-42.27,0.015-63.404-0.001c-0.873-0.001-2.033,0.134-2.556-0.345
		c-0.932-0.854-2.09-2.176-2.011-3.217c0.077-1.037,1.442-2.125,2.471-2.881c0.542-0.398,1.569-0.168,2.377-0.168
		C73.592,177.564,84.122,177.567,94.652,177.567z"/>
	<linearGradient id="SVGID_3_" gradientUnits="userSpaceOnUse" x1="83.6021" y1="163.5864" x2="83.6021" y2="170.2339">
		<stop  offset="0" style="stop-color:#C3F672"/>
		<stop  offset="1" style="stop-color:#4653FF"/>
	</linearGradient>
	<path style="fill-rule:evenodd;clip-rule:evenodd;fill:url(#SVGID_3_);" d="M83.564,170.216c-7.276-0.001-14.555,0.074-21.828-0.08
		c-1.11-0.023-2.555-0.857-3.185-1.771c-0.502-0.729-0.369-2.396,0.162-3.196c0.539-0.813,1.908-1.502,2.919-1.509
		c14.554-0.096,29.107-0.08,43.661-0.053c2.236,0.003,3.646,1.346,3.672,3.26c0.028,2.014-1.409,3.332-3.791,3.341
		C97.972,170.233,90.768,170.216,83.564,170.216z"/>
</g>
</svg>
